<?xml version="1.1" encoding="UTF-8"?>
<svg xmlns="http://www.w3.org/2000/svg"
    xmlns:latexdraw="http://latexdraw.sourceforge.net/namespaces/latexdraw"
    version="1.1" baseProfile="full">
    <g>
        <g latexdraw:type="rectangle" id="id28700548">
            <rect x="360.25" y="140.25" width="39.5" height="79.5"
                latexdraw:borderPos="outer" stroke-width="0.5"
                stroke="black" fill="lime"/>
        </g>
        <g latexdraw:type="square" id="id1297458">
            <rect x="280.25" y="140.25" width="39.5" height="39.5"
                latexdraw:borderPos="outer" stroke-width="0.5"
                stroke="black" fill="yellow"/>
        </g>
        <g latexdraw:type="square" id="id30005930">
            <rect x="320.25" y="140.25" width="39.5" height="39.5"
                latexdraw:borderPos="outer" stroke-width="0.5"
                stroke="black" fill="yellow"/>
        </g>
        <g latexdraw:type="rectangle" id="id25654281">
            <rect x="280.25" y="100.25" width="119.5" height="39.5"
                latexdraw:borderPos="outer" stroke-width="0.5"
                stroke="black" fill="red"/>
        </g>
        <g latexdraw:type="joinedLines" id="id33227137">
            <polyline points="280.0,100.0 280.0,280.0 "
                stroke-width="2.0" stroke="black" latexdraw:rotationAngle="0.0"/>
        </g>
        <g latexdraw:type="joinedLines" id="id12084637">
            <polyline points="280.0,100.0 400.0,100.0 "
                stroke-width="2.0" stroke="black" latexdraw:rotationAngle="0.0"/>
        </g>
        <g latexdraw:type="joinedLines" id="id6102737">
            <polyline points="320.0,100.0 320.0,280.0 "
                stroke-width="2.0" stroke="black" latexdraw:rotationAngle="0.0"/>
        </g>
        <g latexdraw:type="joinedLines" id="id4860552">
            <polyline points="360.0,100.0 360.0,280.0 "
                stroke-width="2.0" stroke="black" latexdraw:rotationAngle="0.0"/>
        </g>
        <g latexdraw:type="joinedLines" id="id21531458">
            <polyline points="400.0,100.0 400.0,280.0 "
                stroke-width="2.0" stroke="black" latexdraw:rotationAngle="0.0"/>
        </g>
        <g latexdraw:type="joinedLines" id="id3161326">
            <polyline points="280.0,140.0 400.0,140.0 "
                stroke-width="2.0" stroke="black" latexdraw:rotationAngle="0.0"/>
        </g>
        <g latexdraw:type="joinedLines" id="id29025418">
            <polyline points="280.0,180.0 400.0,180.0 "
                stroke-width="2.0" stroke="black" latexdraw:rotationAngle="0.0"/>
        </g>
        <g latexdraw:type="joinedLines" id="id17883417">
            <polyline points="280.0,220.0 400.0,220.0 "
                stroke-width="2.0" stroke="black" latexdraw:rotationAngle="0.0"/>
        </g>
        <g latexdraw:type="dot" id="id17494242" latexdraw:size="5.0"
            latexdraw:dotShape="*" latexdraw:position="340.0 240.0">
            <path
                d="M 342.3076923076923 240.0 C 342.3076923076923 241.27450326884028 341.2745032688403 242.3076923076923 340.0 242.3076923076923 C 338.7254967311597 242.3076923076923 337.6923076923077 241.27450326884028 337.6923076923077 240.0 C 337.6923076923077 238.7254967311597 338.7254967311597 237.69230769230768 340.0 237.69230769230768 C 341.2745032688403 237.69230769230768 342.3076923076923 238.7254967311597 342.3076923076923 240.0 z "
                fill="black" stroke-linecap="square"
                stroke-linejoin="butt" stroke-width="0.3125"
                stroke-miterlimit="10.0" stroke-dashoffset="0.0" stroke="black"/>
        </g>
        <g latexdraw:type="dot" id="id7554970" latexdraw:size="5.0"
            latexdraw:dotShape="*" latexdraw:position="340.0 260.0">
            <path
                d="M 342.3076923076923 260.0 C 342.3076923076923 261.2745032688403 341.2745032688403 262.3076923076923 340.0 262.3076923076923 C 338.7254967311597 262.3076923076923 337.6923076923077 261.2745032688403 337.6923076923077 260.0 C 337.6923076923077 258.7254967311597 338.7254967311597 257.6923076923077 340.0 257.6923076923077 C 341.2745032688403 257.6923076923077 342.3076923076923 258.7254967311597 342.3076923076923 260.0 z "
                fill="black" stroke-linecap="square"
                stroke-linejoin="butt" stroke-width="0.3125"
                stroke-miterlimit="10.0" stroke-dashoffset="0.0" stroke="black"/>
        </g>
        <g latexdraw:type="dot" id="id10656104" latexdraw:size="5.0"
            latexdraw:dotShape="*" latexdraw:position="380.0 240.0">
            <path
                d="M 382.3076923076923 240.0 C 382.3076923076923 241.27450326884028 381.2745032688403 242.3076923076923 380.0 242.3076923076923 C 378.7254967311597 242.3076923076923 377.6923076923077 241.27450326884028 377.6923076923077 240.0 C 377.6923076923077 238.7254967311597 378.7254967311597 237.69230769230768 380.0 237.69230769230768 C 381.2745032688403 237.69230769230768 382.3076923076923 238.7254967311597 382.3076923076923 240.0 z "
                fill="black" stroke-linecap="square"
                stroke-linejoin="butt" stroke-width="0.3125"
                stroke-miterlimit="10.0" stroke-dashoffset="0.0" stroke="black"/>
        </g>
        <g latexdraw:type="dot" id="id1613181" latexdraw:size="5.0"
            latexdraw:dotShape="*" latexdraw:position="380.0 260.0">
            <path
                d="M 382.3076923076923 260.0 C 382.3076923076923 261.2745032688403 381.2745032688403 262.3076923076923 380.0 262.3076923076923 C 378.7254967311597 262.3076923076923 377.6923076923077 261.2745032688403 377.6923076923077 260.0 C 377.6923076923077 258.7254967311597 378.7254967311597 257.6923076923077 380.0 257.6923076923077 C 381.2745032688403 257.6923076923077 382.3076923076923 258.7254967311597 382.3076923076923 260.0 z "
                fill="black" stroke-linecap="square"
                stroke-linejoin="butt" stroke-width="0.3125"
                stroke-miterlimit="10.0" stroke-dashoffset="0.0" stroke="black"/>
        </g>
        <g latexdraw:type="dot" id="id11925445" latexdraw:size="5.0"
            latexdraw:dotShape="*" latexdraw:position="300.0 240.0">
            <path
                d="M 302.3076923076923 240.0 C 302.3076923076923 241.27450326884028 301.2745032688403 242.3076923076923 300.0 242.3076923076923 C 298.7254967311597 242.3076923076923 297.6923076923077 241.27450326884028 297.6923076923077 240.0 C 297.6923076923077 238.7254967311597 298.7254967311597 237.69230769230768 300.0 237.69230769230768 C 301.2745032688403 237.69230769230768 302.3076923076923 238.7254967311597 302.3076923076923 240.0 z "
                fill="black" stroke-linecap="square"
                stroke-linejoin="butt" stroke-width="0.3125"
                stroke-miterlimit="10.0" stroke-dashoffset="0.0" stroke="black"/>
        </g>
        <g latexdraw:type="dot" id="id16006988" latexdraw:size="5.0"
            latexdraw:dotShape="*" latexdraw:position="300.0 260.0">
            <path
                d="M 302.3076923076923 260.0 C 302.3076923076923 261.2745032688403 301.2745032688403 262.3076923076923 300.0 262.3076923076923 C 298.7254967311597 262.3076923076923 297.6923076923077 261.2745032688403 297.6923076923077 260.0 C 297.6923076923077 258.7254967311597 298.7254967311597 257.6923076923077 300.0 257.6923076923077 C 301.2745032688403 257.6923076923077 302.3076923076923 258.7254967311597 302.3076923076923 260.0 z "
                fill="black" stroke-linecap="square"
                stroke-linejoin="butt" stroke-width="0.3125"
                stroke-miterlimit="10.0" stroke-dashoffset="0.0" stroke="black"/>
        </g>
        <g latexdraw:type="dot" id="id6780301" latexdraw:size="5.0"
            latexdraw:dotShape="*" latexdraw:position="300.0 280.0">
            <path
                d="M 302.3076923076923 280.0 C 302.3076923076923 281.2745032688403 301.2745032688403 282.3076923076923 300.0 282.3076923076923 C 298.7254967311597 282.3076923076923 297.6923076923077 281.2745032688403 297.6923076923077 280.0 C 297.6923076923077 278.7254967311597 298.7254967311597 277.6923076923077 300.0 277.6923076923077 C 301.2745032688403 277.6923076923077 302.3076923076923 278.7254967311597 302.3076923076923 280.0 z "
                fill="black" stroke-linecap="square"
                stroke-linejoin="butt" stroke-width="0.3125"
                stroke-miterlimit="10.0" stroke-dashoffset="0.0" stroke="black"/>
        </g>
        <g latexdraw:type="dot" id="id13247524" latexdraw:size="5.0"
            latexdraw:dotShape="*" latexdraw:position="340.0 280.0">
            <path
                d="M 342.3076923076923 280.0 C 342.3076923076923 281.2745032688403 341.2745032688403 282.3076923076923 340.0 282.3076923076923 C 338.7254967311597 282.3076923076923 337.6923076923077 281.2745032688403 337.6923076923077 280.0 C 337.6923076923077 278.7254967311597 338.7254967311597 277.6923076923077 340.0 277.6923076923077 C 341.2745032688403 277.6923076923077 342.3076923076923 278.7254967311597 342.3076923076923 280.0 z "
                fill="black" stroke-linecap="square"
                stroke-linejoin="butt" stroke-width="0.3125"
                stroke-miterlimit="10.0" stroke-dashoffset="0.0" stroke="black"/>
        </g>
        <g latexdraw:type="dot" id="id21129560" latexdraw:size="5.0"
            latexdraw:dotShape="*" latexdraw:position="380.0 280.0">
            <path
                d="M 382.3076923076923 280.0 C 382.3076923076923 281.2745032688403 381.2745032688403 282.3076923076923 380.0 282.3076923076923 C 378.7254967311597 282.3076923076923 377.6923076923077 281.2745032688403 377.6923076923077 280.0 C 377.6923076923077 278.7254967311597 378.7254967311597 277.6923076923077 380.0 277.6923076923077 C 381.2745032688403 277.6923076923077 382.3076923076923 278.7254967311597 382.3076923076923 280.0 z "
                fill="black" stroke-linecap="square"
                stroke-linejoin="butt" stroke-width="0.3125"
                stroke-miterlimit="10.0" stroke-dashoffset="0.0" stroke="black"/>
        </g>
    </g>
    <defs/>
    <metadata>
        <latexdraw:metadata>
            <latexdraw:latexIncludes/>
            <latexdraw:displayXScale>true</latexdraw:displayXScale>
            <latexdraw:displayYScale>true</latexdraw:displayYScale>
            <latexdraw:unit>CM</latexdraw:unit>
            <latexdraw:zoom>1.0</latexdraw:zoom>
            <latexdraw:magneticGridStyle>CUSTOMISED</latexdraw:magneticGridStyle>
            <latexdraw:gridGap>20</latexdraw:gridGap>
            <latexdraw:magneticGrid>true</latexdraw:magneticGrid>
            <latexdraw:version>3.3.8</latexdraw:version>
            <latexdraw:size>
                <latexdraw:width>1442</latexdraw:width>
                <latexdraw:height>844</latexdraw:height>
            </latexdraw:size>
            <latexdraw:position>
                <latexdraw:x>-1.0</latexdraw:x>
                <latexdraw:y>27.0</latexdraw:y>
            </latexdraw:position>
        </latexdraw:metadata>
    </metadata>
</svg>
